<svg width="44" height="40" viewBox="0 0 44 40" fill="none" xmlns="http://www.w3.org/2000/svg">
<path d="M0.861777 23.2962C0.861777 23.2962 0.840786 23.2304 0.833784 23.2085C0.821535 23.0674 0.91254 22.9417 1.07711 22.8408L34.9885 0.340608C35.153 0.239726 35.3387 0.20466 35.5085 0.222924C35.6853 0.263118 35.8095 0.344189 35.8218 0.485265L43.79 39.4072C43.839 39.5607 43.7322 39.7397 43.5379 39.8501C43.3435 39.9605 43.1212 39.9832 42.9373 39.9211L1.06479 23.5213C1.06479 23.5213 0.866998 23.4153 0.831987 23.3057L0.861777 23.2962ZM34.8956 1.38513L2.33938 22.9935L42.5294 38.7465L34.8886 1.36331L34.8956 1.38513Z" fill="#D0D5DD"/>
</svg>
