<svg width="24" height="20" viewBox="0 0 24 20" fill="none" xmlns="http://www.w3.org/2000/svg">
<path d="M0.270135 15.1763C0.270135 15.1763 0.253232 15.146 0.247593 15.1359C0.227458 15.0677 0.259667 14.9968 0.330561 14.9307L14.7673 0.467603C14.8382 0.401503 14.9261 0.365684 15.0115 0.357688C15.1025 0.359783 15.1717 0.387255 15.1919 0.455449L23.0052 18.8111C23.0447 18.8817 23.01 18.9805 22.9254 19.0542C22.8408 19.128 22.7337 19.1614 22.637 19.1492L0.392548 15.2667C0.392548 15.2667 0.28462 15.2344 0.256427 15.1839L0.270135 15.1763ZM14.8261 0.99087L0.966959 14.8796L22.3188 18.612L14.8205 0.980831L14.8261 0.99087Z" fill="#404968"/>
</svg>
