<svg width="24" height="20" viewBox="0 0 24 20" fill="none" xmlns="http://www.w3.org/2000/svg">
<path d="M0.723626 15.0403C0.723626 15.0403 0.706723 15.01 0.701084 14.9999C0.680949 14.9317 0.713158 14.8608 0.784052 14.7947L15.2208 0.331617C15.2917 0.265517 15.3796 0.229697 15.465 0.221702C15.556 0.223796 15.6252 0.251269 15.6453 0.319463L23.4587 18.6751C23.4981 18.7457 23.4635 18.8445 23.3789 18.9182C23.2943 18.992 23.1872 19.0254 23.0905 19.0132L0.846039 15.1308C0.846039 15.1308 0.738111 15.0984 0.709918 15.0479L0.723626 15.0403ZM15.2796 0.854883L1.42045 14.7436L22.7723 18.476L15.274 0.844845L15.2796 0.854883Z" fill="#404968"/>
</svg>
