<svg width="41" height="43" viewBox="0 0 41 43" fill="none" xmlns="http://www.w3.org/2000/svg">
<path d="M21.0301 41.9814C21.0301 41.9814 20.9631 41.9978 20.9407 42.0033C20.7991 42.0057 20.6801 41.9062 20.5909 41.735L0.500693 6.34256C0.411487 6.17138 0.389401 5.98375 0.419418 5.81561C0.471798 5.642 0.561302 5.52373 0.702888 5.52131L40.0843 0.276114C40.2409 0.237879 40.412 0.35687 40.5087 0.558407C40.6053 0.759946 40.6125 0.983332 40.5377 1.1624L21.2688 41.7946C21.2688 41.7946 21.1494 41.9845 21.0376 42.0118L21.0301 41.9814ZM1.53624 6.50775L20.8308 40.4864L39.3377 1.48772L1.51399 6.51318L1.53624 6.50775Z" fill="#404968"/>
</svg>
