<svg width="48" height="48" viewBox="0 0 48 48" fill="none" xmlns="http://www.w3.org/2000/svg">
<path d="M13.7169 47.9627C13.7169 47.9627 13.6347 47.9627 13.6072 47.9627C13.4426 47.9255 13.3329 47.7766 13.2781 47.5532L0.0285277 0.900686C-0.0263356 0.67729 0.00114966 0.453844 0.0834446 0.26768C0.193171 0.0815168 0.330229 -0.0300949 0.494819 0.0071378L47.5676 5.07073C47.7596 5.07073 47.9241 5.25687 47.979 5.5175C48.0338 5.77813 47.979 6.03877 47.8418 6.22493L14.0461 47.8139C14.0461 47.8139 13.854 48 13.7169 48V47.9627ZM1.18061 1.38473L13.9089 46.1756L46.3606 6.2622L1.15332 1.38473H1.18061Z" fill="#404968"/>
</svg>
