<svg width="44" height="40" viewBox="0 0 44 40" fill="none" xmlns="http://www.w3.org/2000/svg">
<path d="M0.861045 23.2964C0.861045 23.2964 0.840053 23.2307 0.833051 23.2087C0.820803 23.0677 0.911808 22.942 1.07638 22.8411L34.9877 0.340852C35.1523 0.23997 35.3379 0.204904 35.5078 0.223168C35.6846 0.263362 35.8088 0.344433 35.821 0.485509L43.7893 39.4075C43.8383 39.561 43.7315 39.74 43.5371 39.8504C43.3428 39.9607 43.1204 39.9834 42.9366 39.9213L1.06406 23.5215C1.06406 23.5215 0.866266 23.4156 0.831254 23.3059L0.861045 23.2964ZM34.8949 1.38537L2.33865 22.9937L42.5287 38.7467L34.8879 1.36356L34.8949 1.38537Z" fill="#404968"/>
</svg>
