<svg width="19" height="22" viewBox="0 0 19 22" fill="none" xmlns="http://www.w3.org/2000/svg">
<path d="M15.7504 11.6927C15.7721 10.0117 16.6749 8.42107 18.107 7.5406C17.2035 6.25028 15.6902 5.43218 14.1158 5.38292C12.4366 5.20666 10.8086 6.38775 9.95294 6.38775C9.08067 6.38775 7.76317 5.40042 6.34444 5.42961C4.49518 5.48936 2.77122 6.54074 1.87152 8.15748C-0.0624824 11.5059 1.38011 16.427 3.23272 19.1336C4.15962 20.4589 5.2429 21.9394 6.66035 21.8869C8.04741 21.8293 8.56545 21.0024 10.2397 21.0024C11.8985 21.0024 12.3845 21.8869 13.8307 21.8535C15.3191 21.8293 16.2569 20.5222 17.1513 19.1843C17.8172 18.24 18.3297 17.1963 18.6697 16.0918C16.9206 15.352 15.7525 13.5918 15.7504 11.6927Z" fill="white"/>
<path d="M13.0188 3.60292C13.8303 2.62872 14.2301 1.37654 14.1333 0.112305C12.8935 0.242525 11.7482 0.835084 10.9257 1.77191C10.1214 2.68725 9.70287 3.91739 9.782 5.1333C11.0223 5.14607 12.2416 4.56958 13.0188 3.60292Z" fill="white"/>
</svg>
