<svg width="33" height="32" viewBox="0 0 33 32" fill="none" xmlns="http://www.w3.org/2000/svg">
<path d="M8.57588 24.7072C8.59949 24.6674 8.62368 24.6278 8.64844 24.5885C10.4544 21.7175 11.4999 18.3224 11.4999 14.6667C11.4999 11.7211 13.8877 9.33333 16.8332 9.33333C19.7788 9.33333 22.1666 11.7211 22.1666 14.6667C22.1666 16.0227 22.0743 17.3581 21.8955 18.6667M19.0723 27.7915C19.8879 26.1635 20.5566 24.4492 21.061 22.6667M26.1796 24.1759C27.0396 21.1542 27.5 17.9642 27.5 14.6667C27.5 8.77563 22.7244 4 16.8334 4C14.8905 4 13.069 4.51944 11.5 5.42701M4.83337 20.4855C5.68758 18.7272 6.16671 16.7529 6.16671 14.6667C6.16671 12.7238 6.68614 10.9023 7.59372 9.33333M16.8332 14.6667C16.8332 19.3563 15.4882 23.7317 13.1628 27.4283" stroke="#155EEF" stroke-width="2" stroke-linecap="round" stroke-linejoin="round"/>
</svg>
