<svg width="33" height="32" viewBox="0 0 33 32" fill="none" xmlns="http://www.w3.org/2000/svg">
<path d="M28.5 28H6.63333C5.8866 28 5.51323 28 5.22801 27.8547C4.97713 27.7268 4.77316 27.5229 4.64532 27.272C4.5 26.9868 4.5 26.6134 4.5 25.8667V4M27.1667 20L21.9415 14.4231C21.7435 14.2118 21.6445 14.1061 21.525 14.0515C21.4196 14.0033 21.3034 13.9834 21.188 13.9938C21.0571 14.0056 20.9286 14.0723 20.6716 14.2058L16.3284 16.4609C16.0714 16.5944 15.9429 16.6611 15.812 16.6729C15.6966 16.6833 15.5804 16.6634 15.475 16.6152C15.3555 16.5606 15.2565 16.4549 15.0585 16.2435L9.83333 10.6667" stroke="#155EEF" stroke-width="2" stroke-linecap="round" stroke-linejoin="round"/>
</svg>
