<svg width="25" height="30" viewBox="0 0 25 30" fill="none" xmlns="http://www.w3.org/2000/svg">
<path d="M13.8334 8.99999L9.83337 13L15.1667 15.6667L11.1667 19.6667M23.1667 15C23.1667 21.5446 16.0281 26.3045 13.4307 27.8198C13.1355 27.992 12.9879 28.0781 12.7796 28.1228C12.618 28.1575 12.3821 28.1575 12.2205 28.1228C12.0122 28.0781 11.8646 27.992 11.5694 27.8198C8.97199 26.3045 1.83337 21.5446 1.83337 15V8.62346C1.83337 7.55744 1.83337 7.02444 2.00772 6.56626C2.16174 6.16151 2.41202 5.80036 2.73692 5.51403C3.1047 5.18991 3.60377 5.00276 4.60191 4.62845L11.751 1.94756C12.0282 1.84361 12.1668 1.79163 12.3094 1.77103C12.4358 1.75276 12.5643 1.75276 12.6907 1.77103C12.8333 1.79163 12.9719 1.84361 13.2491 1.94756L20.3982 4.62845C21.3963 5.00276 21.8954 5.18991 22.2632 5.51403C22.5881 5.80036 22.8383 6.16151 22.9924 6.56626C23.1667 7.02444 23.1667 7.55744 23.1667 8.62346V15Z" stroke="#155EEF" stroke-width="2" stroke-linecap="round" stroke-linejoin="round"/>
</svg>
