<svg width="33" height="32" viewBox="0 0 33 32" fill="none" xmlns="http://www.w3.org/2000/svg">
<path d="M23.8273 21.3334C24.8818 19.8216 25.5002 17.9831 25.5002 16.0001C25.5002 15.3136 25.426 14.6444 25.2854 14M8.50642 21.3334C7.45192 19.8216 6.8335 17.9831 6.8335 16.0001C6.8335 10.8454 11.0122 6.66675 16.1668 6.66675C16.7297 6.66675 17.2809 6.71657 17.8163 6.81204M22.1667 10.0001L16.1667 16.0001M29.5002 16.0001C29.5002 23.3639 23.5306 29.3334 16.1668 29.3334C8.80303 29.3334 2.8335 23.3639 2.8335 16.0001C2.8335 8.63628 8.80303 2.66675 16.1668 2.66675C23.5306 2.66675 29.5002 8.63628 29.5002 16.0001ZM17.5002 16.0001C17.5002 16.7365 16.9032 17.3334 16.1668 17.3334C15.4305 17.3334 14.8335 16.7365 14.8335 16.0001C14.8335 15.2637 15.4305 14.6667 16.1668 14.6667C16.9032 14.6667 17.5002 15.2637 17.5002 16.0001Z" stroke="#155EEF" stroke-width="2" stroke-linecap="round" stroke-linejoin="round"/>
</svg>
